<mxfile host="app.diagrams.net" modified="2024-05-09T04:25:41.329Z" agent="Mozilla/5.0 (Windows NT 10.0; Win64; x64) AppleWebKit/537.36 (KHTML, like Gecko) Chrome/124.0.0.0 Safari/537.36" etag="wH4WmTaaJ1k-3ey9jyuF" version="24.2.5" type="device">
  <diagram name="Page-1" id="2YBvvXClWsGukQMizWep">
    <mxGraphModel dx="880" dy="506" grid="1" gridSize="10" guides="1" tooltips="1" connect="1" arrows="1" fold="1" page="1" pageScale="1" pageWidth="850" pageHeight="1100" math="0" shadow="0">
      <root>
        <mxCell id="0" />
        <mxCell id="1" parent="0" />
        <mxCell id="aM9ryv3xv72pqoxQDRHE-1" value="e:Empleado" style="shape=umlLifeline;perimeter=lifelinePerimeter;whiteSpace=wrap;html=1;container=0;dropTarget=0;collapsible=0;recursiveResize=0;outlineConnect=0;portConstraint=eastwest;newEdgeStyle={&quot;edgeStyle&quot;:&quot;elbowEdgeStyle&quot;,&quot;elbow&quot;:&quot;vertical&quot;,&quot;curved&quot;:0,&quot;rounded&quot;:0};" parent="1" vertex="1">
          <mxGeometry x="40" y="123" width="100" height="357" as="geometry" />
        </mxCell>
        <mxCell id="aM9ryv3xv72pqoxQDRHE-2" value="" style="html=1;points=[];perimeter=orthogonalPerimeter;outlineConnect=0;targetShapes=umlLifeline;portConstraint=eastwest;newEdgeStyle={&quot;edgeStyle&quot;:&quot;elbowEdgeStyle&quot;,&quot;elbow&quot;:&quot;vertical&quot;,&quot;curved&quot;:0,&quot;rounded&quot;:0};" parent="aM9ryv3xv72pqoxQDRHE-1" vertex="1">
          <mxGeometry x="45" y="70" width="10" height="240" as="geometry" />
        </mxCell>
        <mxCell id="aM9ryv3xv72pqoxQDRHE-4" value="" style="html=1;points=[];perimeter=orthogonalPerimeter;outlineConnect=0;targetShapes=umlLifeline;portConstraint=eastwest;newEdgeStyle={&quot;edgeStyle&quot;:&quot;elbowEdgeStyle&quot;,&quot;elbow&quot;:&quot;vertical&quot;,&quot;curved&quot;:0,&quot;rounded&quot;:0};" parent="aM9ryv3xv72pqoxQDRHE-1" vertex="1">
          <mxGeometry x="50" y="120" width="10" height="80" as="geometry" />
        </mxCell>
        <mxCell id="54CYKFA1Ln2ZUJiB--Gm-17" value="" style="shape=umlDestroy;whiteSpace=wrap;html=1;strokeWidth=3;targetShapes=umlLifeline;" vertex="1" parent="aM9ryv3xv72pqoxQDRHE-1">
          <mxGeometry x="35" y="347" width="30" height="20" as="geometry" />
        </mxCell>
        <mxCell id="aM9ryv3xv72pqoxQDRHE-5" value="e:IEstrategiaSueldo" style="shape=umlLifeline;perimeter=lifelinePerimeter;whiteSpace=wrap;html=1;container=0;dropTarget=0;collapsible=0;recursiveResize=0;outlineConnect=0;portConstraint=eastwest;newEdgeStyle={&quot;edgeStyle&quot;:&quot;elbowEdgeStyle&quot;,&quot;elbow&quot;:&quot;vertical&quot;,&quot;curved&quot;:0,&quot;rounded&quot;:0};" parent="1" vertex="1">
          <mxGeometry x="305" y="123" width="120" height="357" as="geometry" />
        </mxCell>
        <mxCell id="aM9ryv3xv72pqoxQDRHE-6" value="" style="html=1;points=[];perimeter=orthogonalPerimeter;outlineConnect=0;targetShapes=umlLifeline;portConstraint=eastwest;newEdgeStyle={&quot;edgeStyle&quot;:&quot;elbowEdgeStyle&quot;,&quot;elbow&quot;:&quot;vertical&quot;,&quot;curved&quot;:0,&quot;rounded&quot;:0};" parent="aM9ryv3xv72pqoxQDRHE-5" vertex="1">
          <mxGeometry x="55" y="80" width="10" height="70" as="geometry" />
        </mxCell>
        <mxCell id="54CYKFA1Ln2ZUJiB--Gm-12" value="" style="html=1;points=[];perimeter=orthogonalPerimeter;outlineConnect=0;targetShapes=umlLifeline;portConstraint=eastwest;newEdgeStyle={&quot;edgeStyle&quot;:&quot;elbowEdgeStyle&quot;,&quot;elbow&quot;:&quot;vertical&quot;,&quot;curved&quot;:0,&quot;rounded&quot;:0};" vertex="1" parent="aM9ryv3xv72pqoxQDRHE-5">
          <mxGeometry x="55" y="180" width="10" height="120" as="geometry" />
        </mxCell>
        <mxCell id="aM9ryv3xv72pqoxQDRHE-7" value="&lt;span data-lucid-content=&quot;{&amp;quot;t&amp;quot;:&amp;quot;setEstrategia(new CategoriaB())&amp;quot;,&amp;quot;m&amp;quot;:[{&amp;quot;s&amp;quot;:0,&amp;quot;n&amp;quot;:&amp;quot;b&amp;quot;,&amp;quot;v&amp;quot;:true,&amp;quot;e&amp;quot;:31},{&amp;quot;s&amp;quot;:0,&amp;quot;n&amp;quot;:&amp;quot;s&amp;quot;,&amp;quot;v&amp;quot;:19.02978567631108,&amp;quot;e&amp;quot;:31},{&amp;quot;s&amp;quot;:0,&amp;quot;n&amp;quot;:&amp;quot;c&amp;quot;,&amp;quot;v&amp;quot;:&amp;quot;#333333ff&amp;quot;,&amp;quot;e&amp;quot;:31}]}&quot; data-lucid-type=&quot;application/vnd.lucid.text&quot;&gt;&lt;span style=&quot;font-weight: bold; color: rgb(51, 51, 51);&quot;&gt;&lt;font style=&quot;font-size: 11px;&quot;&gt;setEstrategia(new CategoriaB())&lt;/font&gt;&lt;/span&gt;&lt;/span&gt;" style="html=1;verticalAlign=bottom;endArrow=block;edgeStyle=elbowEdgeStyle;elbow=vertical;curved=0;rounded=0;" parent="1" source="aM9ryv3xv72pqoxQDRHE-2" target="aM9ryv3xv72pqoxQDRHE-6" edge="1">
          <mxGeometry relative="1" as="geometry">
            <mxPoint x="195" y="213" as="sourcePoint" />
            <Array as="points">
              <mxPoint x="180" y="203" />
            </Array>
          </mxGeometry>
        </mxCell>
        <mxCell id="aM9ryv3xv72pqoxQDRHE-8" value="sueldoNeto: double" style="html=1;verticalAlign=bottom;endArrow=open;dashed=1;endSize=8;elbow=horizontal;rounded=0;" parent="1" edge="1">
          <mxGeometry relative="1" as="geometry">
            <mxPoint x="95" y="403" as="targetPoint" />
            <mxPoint x="360" y="403" as="sourcePoint" />
          </mxGeometry>
        </mxCell>
        <mxCell id="aM9ryv3xv72pqoxQDRHE-9" value="callback" style="html=1;verticalAlign=bottom;endArrow=block;edgeStyle=elbowEdgeStyle;elbow=vertical;curved=0;rounded=0;" parent="1" source="aM9ryv3xv72pqoxQDRHE-6" target="aM9ryv3xv72pqoxQDRHE-4" edge="1">
          <mxGeometry relative="1" as="geometry">
            <mxPoint x="175" y="243" as="sourcePoint" />
            <Array as="points">
              <mxPoint x="190" y="243" />
            </Array>
          </mxGeometry>
        </mxCell>
        <mxCell id="aM9ryv3xv72pqoxQDRHE-10" value="&lt;span data-lucid-content=&quot;{&amp;quot;t&amp;quot;:&amp;quot;calcularSueldo()&amp;quot;,&amp;quot;m&amp;quot;:[{&amp;quot;s&amp;quot;:0,&amp;quot;n&amp;quot;:&amp;quot;a&amp;quot;,&amp;quot;v&amp;quot;:&amp;quot;center&amp;quot;},{&amp;quot;s&amp;quot;:0,&amp;quot;n&amp;quot;:&amp;quot;c&amp;quot;,&amp;quot;v&amp;quot;:&amp;quot;#333333ff&amp;quot;,&amp;quot;e&amp;quot;:16}]}&quot; data-lucid-type=&quot;application/vnd.lucid.text&quot;&gt;&lt;span style=&quot;color:#333333;&quot;&gt;calcularSueldo(e: Empleado)&lt;/span&gt;&lt;/span&gt;" style="html=1;verticalAlign=bottom;endArrow=open;endSize=8;edgeStyle=elbowEdgeStyle;elbow=vertical;curved=0;rounded=0;" parent="1" source="aM9ryv3xv72pqoxQDRHE-4" target="54CYKFA1Ln2ZUJiB--Gm-12" edge="1">
          <mxGeometry relative="1" as="geometry">
            <mxPoint x="175" y="318" as="targetPoint" />
            <Array as="points">
              <mxPoint x="180" y="313" />
            </Array>
          </mxGeometry>
        </mxCell>
        <mxCell id="54CYKFA1Ln2ZUJiB--Gm-1" value="e:CategoriaB" style="shape=umlLifeline;perimeter=lifelinePerimeter;whiteSpace=wrap;html=1;container=0;dropTarget=0;collapsible=0;recursiveResize=0;outlineConnect=0;portConstraint=eastwest;newEdgeStyle={&quot;edgeStyle&quot;:&quot;elbowEdgeStyle&quot;,&quot;elbow&quot;:&quot;vertical&quot;,&quot;curved&quot;:0,&quot;rounded&quot;:0};" vertex="1" parent="1">
          <mxGeometry x="520" y="123" width="100" height="357" as="geometry" />
        </mxCell>
        <mxCell id="54CYKFA1Ln2ZUJiB--Gm-7" style="edgeStyle=elbowEdgeStyle;rounded=0;orthogonalLoop=1;jettySize=auto;html=1;elbow=vertical;curved=0;" edge="1" parent="54CYKFA1Ln2ZUJiB--Gm-1" source="54CYKFA1Ln2ZUJiB--Gm-2" target="54CYKFA1Ln2ZUJiB--Gm-1">
          <mxGeometry relative="1" as="geometry" />
        </mxCell>
        <mxCell id="54CYKFA1Ln2ZUJiB--Gm-8" style="edgeStyle=entityRelationEdgeStyle;rounded=0;orthogonalLoop=1;jettySize=auto;html=1;" edge="1" parent="54CYKFA1Ln2ZUJiB--Gm-1" target="54CYKFA1Ln2ZUJiB--Gm-9">
          <mxGeometry relative="1" as="geometry">
            <mxPoint x="140" y="300" as="targetPoint" />
            <mxPoint x="65" y="220" as="sourcePoint" />
            <Array as="points">
              <mxPoint x="90" y="230" />
              <mxPoint x="90" y="240" />
              <mxPoint x="80" y="270" />
              <mxPoint x="80" y="240" />
            </Array>
          </mxGeometry>
        </mxCell>
        <mxCell id="54CYKFA1Ln2ZUJiB--Gm-10" value="&lt;span style=&quot;font-size: 12px; text-align: left; background-color: rgb(251, 251, 251);&quot;&gt;- aplicaDescuentoPorNombre(): boolean&amp;nbsp;&lt;/span&gt;" style="edgeLabel;html=1;align=center;verticalAlign=middle;resizable=0;points=[];" vertex="1" connectable="0" parent="54CYKFA1Ln2ZUJiB--Gm-8">
          <mxGeometry x="-0.075" y="2" relative="1" as="geometry">
            <mxPoint x="113" y="3" as="offset" />
          </mxGeometry>
        </mxCell>
        <mxCell id="54CYKFA1Ln2ZUJiB--Gm-2" value="" style="html=1;points=[];perimeter=orthogonalPerimeter;outlineConnect=0;targetShapes=umlLifeline;portConstraint=eastwest;newEdgeStyle={&quot;edgeStyle&quot;:&quot;elbowEdgeStyle&quot;,&quot;elbow&quot;:&quot;vertical&quot;,&quot;curved&quot;:0,&quot;rounded&quot;:0};" vertex="1" parent="54CYKFA1Ln2ZUJiB--Gm-1">
          <mxGeometry x="45" y="180" width="10" height="110" as="geometry" />
        </mxCell>
        <mxCell id="54CYKFA1Ln2ZUJiB--Gm-9" value="" style="html=1;points=[];perimeter=orthogonalPerimeter;outlineConnect=0;targetShapes=umlLifeline;portConstraint=eastwest;newEdgeStyle={&quot;edgeStyle&quot;:&quot;elbowEdgeStyle&quot;,&quot;elbow&quot;:&quot;vertical&quot;,&quot;curved&quot;:0,&quot;rounded&quot;:0};" vertex="1" parent="54CYKFA1Ln2ZUJiB--Gm-1">
          <mxGeometry x="55" y="200" width="10" height="70" as="geometry" />
        </mxCell>
        <mxCell id="54CYKFA1Ln2ZUJiB--Gm-3" style="edgeStyle=elbowEdgeStyle;rounded=0;orthogonalLoop=1;jettySize=auto;html=1;elbow=vertical;curved=0;" edge="1" parent="1" source="54CYKFA1Ln2ZUJiB--Gm-12" target="54CYKFA1Ln2ZUJiB--Gm-2">
          <mxGeometry relative="1" as="geometry">
            <mxPoint x="394.9999999999999" y="323.00310344827597" as="sourcePoint" />
            <mxPoint x="530" y="323" as="targetPoint" />
            <Array as="points">
              <mxPoint x="380" y="323" />
            </Array>
          </mxGeometry>
        </mxCell>
        <mxCell id="54CYKFA1Ln2ZUJiB--Gm-5" value="&lt;span style=&quot;color: rgb(51, 51, 51);&quot;&gt;calcularSueldo(e: Empleado)&lt;/span&gt;" style="edgeLabel;html=1;align=center;verticalAlign=middle;resizable=0;points=[];" vertex="1" connectable="0" parent="54CYKFA1Ln2ZUJiB--Gm-3">
          <mxGeometry x="-0.0253" y="1" relative="1" as="geometry">
            <mxPoint y="-9" as="offset" />
          </mxGeometry>
        </mxCell>
        <mxCell id="54CYKFA1Ln2ZUJiB--Gm-14" style="rounded=0;orthogonalLoop=1;jettySize=auto;html=1;elbow=vertical;dashed=1;" edge="1" parent="1">
          <mxGeometry relative="1" as="geometry">
            <mxPoint x="565.0000000000001" y="393" as="sourcePoint" />
            <mxPoint x="370" y="393" as="targetPoint" />
          </mxGeometry>
        </mxCell>
        <mxCell id="54CYKFA1Ln2ZUJiB--Gm-15" value="sueldoNeto: double" style="edgeLabel;html=1;align=center;verticalAlign=middle;resizable=0;points=[];" vertex="1" connectable="0" parent="54CYKFA1Ln2ZUJiB--Gm-14">
          <mxGeometry x="-0.0903" y="-1" relative="1" as="geometry">
            <mxPoint x="-5" y="-10" as="offset" />
          </mxGeometry>
        </mxCell>
      </root>
    </mxGraphModel>
  </diagram>
</mxfile>
